<svg xmlns="http://www.w3.org/2000/svg" viewBox="0 0 500 500"><g id="freepik--Floor--inject-177"><path d="M412.79,257.18c-90.49-52.25-236.74-52.25-326.65,0s-89.43,137,1.06,189.21,236.75,52.25,326.66,0S503.29,309.43,412.79,257.18Z" style="fill:#f5f5f5"></path></g><g id="freepik--Shadows--inject-177"><path d="M117.37,430.14c-5.36-3.1-14-3.1-19.35,0s-5.3,8.12.06,11.21,14,3.1,19.36,0S122.74,433.24,117.37,430.14Z" style="fill:#e0e0e0"></path><path d="M304.92,243.48l-13.58-7.83a13.7,13.7,0,0,0-13.72,0l-75.33,43.66-6.65-3.83L141.11,307.4,147.4,311,58.23,362.51a4.57,4.57,0,0,0,0,7.92L72,378.35a13.71,13.71,0,0,0,13.74,0l89.12-51.54,10.41,6a27.47,27.47,0,0,0,27.44,0l32-18.49a6.11,6.11,0,0,0,0-10.58l-15-8.64,12.65-7.34,4.38-2.55,58.23-33.79A4.57,4.57,0,0,0,304.92,243.48Z" style="fill:#e0e0e0"></path><path d="M206,374.56c-15.65-9-40.95-9-56.5,0s-15.47,23.69.19,32.73,40.94,9,56.5,0S221.68,383.6,206,374.56Z" style="fill:#e0e0e0"></path><path d="M338.08,430.09c-14.18-8.19-37.11-8.19-51.2,0s-14,21.46.17,29.65,37.11,8.19,51.2,0S352.26,438.28,338.08,430.09Z" style="fill:#e0e0e0"></path><path d="M355.06,310c-14.62-8.44-38.25-8.44-52.77,0s-14.45,22.12.17,30.56,38.25,8.44,52.77,0S369.68,318.42,355.06,310Z" style="fill:#e0e0e0"></path><path d="M422.69,303.63c-5.74-3.31-15-3.31-20.71,0s-5.66,8.68.07,12,15,3.31,20.7,0S428.42,306.94,422.69,303.63Z" style="fill:#e0e0e0"></path></g><g id="freepik--Windows--inject-177"><polygon points="117.13 106.59 114.15 104.86 82.58 123.01 82.58 126.47 117.13 106.59" style="fill:#f5f5f5"></polygon><polygon points="117.13 106.59 117.13 106.59 117.13 106.59 82.58 126.47 82.58 130.41 117.14 110.56 117.13 106.59" style="fill:#e0e0e0"></polygon><rect x="79.92" y="116.53" width="39.86" transform="translate(-44.8 65.3) rotate(-29.91)" style="fill:#e0e0e0"></rect><polygon points="79.3 128.33 76.31 126.6 44.74 144.75 44.74 148.21 79.3 128.33" style="fill:#f5f5f5"></polygon><polygon points="79.3 128.33 79.3 128.33 79.3 128.33 44.74 148.21 44.74 152.15 79.31 132.3 79.3 128.33" style="fill:#e0e0e0"></polygon><rect x="42.09" y="138.27" width="39.86" transform="translate(-60.68 49.34) rotate(-29.91)" style="fill:#e0e0e0"></rect><polygon points="209.38 53.46 206.4 51.73 174.83 69.89 174.83 73.34 209.38 53.46" style="fill:#f5f5f5"></polygon><polygon points="209.38 53.46 209.38 53.46 209.38 53.46 174.83 73.34 174.83 77.28 209.39 57.43 209.38 53.46" style="fill:#e0e0e0"></polygon><rect x="172.17" y="63.4" width="39.86" transform="translate(-6.03 104.22) rotate(-29.91)" style="fill:#e0e0e0"></rect><polygon points="171.55 75.2 168.56 73.47 137 91.63 137 95.08 171.55 75.2" style="fill:#f5f5f5"></polygon><polygon points="171.55 75.2 171.55 75.2 171.55 75.2 137 95.08 137 99.03 171.56 79.17 171.55 75.2" style="fill:#e0e0e0"></polygon><rect x="134.34" y="85.14" width="39.86" transform="translate(-21.91 88.26) rotate(-29.91)" style="fill:#e0e0e0"></rect><polygon points="116.96 73.42 113.98 71.68 114.15 178.21 117.14 179.94 116.96 73.42" style="fill:#f0f0f0"></polygon><polygon points="117.14 179.94 114.15 178.21 79.77 197.94 82.75 199.68 117.14 179.94" style="fill:#f5f5f5"></polygon><path d="M120.59,181.91l-41.26,23.7-.2-114.42,41.26-23.71ZM82.75,199.68l34.39-19.74L117,73.42,82.58,93.15l.17,106.53" style="fill:#e0e0e0"></path><polygon points="120.39 67.48 117.4 65.75 76.14 89.45 79.13 91.19 120.39 67.48" style="fill:#f5f5f5"></polygon><polygon points="79.13 91.19 76.14 89.45 76.34 203.88 79.33 205.61 79.13 91.19" style="fill:#f0f0f0"></polygon><polygon points="79.13 95.16 76.14 93.42 76.32 199.95 79.31 201.68 79.13 95.16" style="fill:#f0f0f0"></polygon><polygon points="79.31 201.68 76.32 199.95 41.93 219.68 44.92 221.42 79.31 201.68" style="fill:#f5f5f5"></polygon><path d="M82.75,203.65,41.5,227.35l-.2-114.42L82.56,89.22ZM44.92,221.42l34.39-19.74L79.13,95.16,44.75,114.89l.17,106.53" style="fill:#e0e0e0"></path><polygon points="82.56 89.22 79.57 87.49 38.31 111.19 41.3 112.93 82.56 89.22" style="fill:#f5f5f5"></polygon><polygon points="41.3 112.93 38.31 111.19 38.51 225.62 41.49 227.35 41.3 112.93" style="fill:#f0f0f0"></polygon><polygon points="209.21 20.29 206.23 18.55 206.4 125.08 209.39 126.81 209.21 20.29" style="fill:#f0f0f0"></polygon><polygon points="209.39 126.81 206.4 125.08 172.02 144.81 175 146.55 209.39 126.81" style="fill:#f5f5f5"></polygon><path d="M212.84,128.78l-41.26,23.7-.2-114.42,41.26-23.71ZM175,146.55l34.39-19.74-.18-106.52L174.83,40,175,146.55" style="fill:#e0e0e0"></path><polygon points="212.64 14.35 209.65 12.62 168.39 36.32 171.38 38.06 212.64 14.35" style="fill:#f5f5f5"></polygon><polygon points="171.38 38.06 168.39 36.32 168.59 150.75 171.58 152.48 171.38 38.06" style="fill:#f0f0f0"></polygon><polygon points="171.38 42.03 168.39 40.29 168.57 146.82 171.56 148.55 171.38 42.03" style="fill:#f0f0f0"></polygon><polygon points="171.56 148.55 168.57 146.82 134.18 166.56 137.17 168.29 171.56 148.55" style="fill:#f5f5f5"></polygon><path d="M175,150.52l-41.25,23.7-.2-114.42,41.26-23.71Zm-37.83,17.77,34.39-19.74L171.38,42,137,61.77l.17,106.52" style="fill:#e0e0e0"></path><polygon points="174.81 36.09 171.82 34.36 130.56 58.06 133.55 59.8 174.81 36.09" style="fill:#f5f5f5"></polygon><polygon points="133.55 59.8 130.56 58.06 130.76 172.49 133.75 174.22 133.55 59.8" style="fill:#f0f0f0"></polygon></g><g id="freepik--Pictures--inject-177"><polygon points="393.1 134.01 425.78 152.88 425.71 177.87 393.02 158.99 393.1 134.01" style="fill:none"></polygon><polygon points="393.1 134.01 393.02 158.99 390 160.75 390.08 132.27 393.1 134.01" style="fill:#f0f0f0"></polygon><polygon points="425.71 177.87 425.7 181.37 390 160.75 393.02 158.99 425.71 177.87" style="fill:#f5f5f5"></polygon><path d="M386.33,162.84l43,24.84.1-36.88-43-24.84Zm3.67-2.09.08-28.48,3,1.74,32.68,18.87-.07,25v3.51Z" style="fill:#e0e0e0"></path><polygon points="386.43 125.96 389.46 124.2 432.48 149.04 429.45 150.8 386.43 125.96" style="fill:#f5f5f5"></polygon><polygon points="432.48 149.04 432.38 185.92 429.35 187.68 429.45 150.8 432.48 149.04" style="fill:#f0f0f0"></polygon><polygon points="393.1 78.07 425.78 96.94 425.71 121.93 393.02 103.05 393.1 78.07" style="fill:none"></polygon><polygon points="393.1 78.07 393.02 103.05 390 104.81 390.08 76.33 393.1 78.07" style="fill:#f0f0f0"></polygon><polygon points="425.71 121.93 425.7 125.43 390 104.81 393.02 103.05 425.71 121.93" style="fill:#f5f5f5"></polygon><path d="M386.33,106.9l43,24.84.1-36.88L386.43,70Zm3.67-2.09.08-28.48,3,1.74,32.68,18.87-.07,25v3.5Z" style="fill:#e0e0e0"></path><polygon points="386.43 70.02 389.46 68.26 432.48 93.1 429.45 94.86 386.43 70.02" style="fill:#f5f5f5"></polygon><polygon points="432.48 93.1 432.38 129.99 429.35 131.74 429.45 94.86 432.48 93.1" style="fill:#f0f0f0"></polygon><polygon points="403.48 143.5 394.57 150.51 394.55 157.37 424.2 174.49 424.22 167.63 418.57 156.41 413.49 160.35 415.29 165.92 412.68 160.97 403.48 143.5" style="fill:#e0e0e0"></polygon><path d="M413.22,147c-1.39-.8-2.53-.16-2.53,1.45a5.55,5.55,0,0,0,2.51,4.36c1.4.8,2.54.16,2.54-1.45A5.56,5.56,0,0,0,413.22,147Z" style="fill:#e0e0e0"></path><polygon points="403.48 87.56 394.57 94.58 394.55 101.43 424.2 118.55 424.22 111.69 418.57 100.47 413.49 104.41 415.29 109.98 412.68 105.03 403.48 87.56" style="fill:#e0e0e0"></polygon><path d="M413.22,91c-1.39-.8-2.53-.16-2.53,1.45a5.55,5.55,0,0,0,2.51,4.36c1.4.81,2.54.16,2.54-1.45A5.56,5.56,0,0,0,413.22,91Z" style="fill:#e0e0e0"></path></g><g id="freepik--Device--inject-177"><path d="M233.59,306l-26.12,14.94a24.76,24.76,0,0,1-24.66,0l-19.38-11.17a7.41,7.41,0,0,1-3.72-6.42l0-13.22-4,2.33V303.9a8.66,8.66,0,0,0,4.34,7.51l23,13.26a24.36,24.36,0,0,0,24.28,0l26.31-15a9.86,9.86,0,0,0,4.8-10.44A9.76,9.76,0,0,1,233.59,306Z" style="fill:#033029"></path><path d="M233.59,306l-26.12,14.94a24.76,24.76,0,0,1-24.66,0l-19.38-11.17a7.41,7.41,0,0,1-3.72-6.42l0-13.22-4,2.33V303.9a8.66,8.66,0,0,0,4.34,7.51l23,13.26a24.36,24.36,0,0,0,24.28,0l26.31-15a9.86,9.86,0,0,0,4.8-10.44A9.76,9.76,0,0,1,233.59,306Z" style="opacity:0.1"></path><path d="M163.43,309.72l19.38,11.17a24.76,24.76,0,0,0,24.66,0L233.59,306a9.76,9.76,0,0,0,4.8-6.77,9.78,9.78,0,0,0-4.62-6.65l-21.43-12.85a8.68,8.68,0,0,1-4.21-7.44V262.07l-48.44,28,0,13.22A7.41,7.41,0,0,0,163.43,309.72Z" style="fill:#033029"></path><path d="M163.43,309.72a7.41,7.41,0,0,1-3.72-6.42l0-13.22-4,2.33V303.9a8.66,8.66,0,0,0,4.34,7.51l8.16,4.71v-3.68Z" style="opacity:0.4"></path><path d="M163.43,309.72l4.72,2.72h0l50.57-28.9-6.38-3.82a8.68,8.68,0,0,1-4.21-7.44V262.07l-48.44,28,0,13.22A7.41,7.41,0,0,0,163.43,309.72Z" style="opacity:0.30000000000000004"></path><path d="M77.82,342.63h0l-.06,0Z" style="fill:#ffa8a7"></path><path d="M75.52,337.81l-.37-165.66a16.27,16.27,0,0,1,7.39-12.8L288.45,40.77c2-1.17,3.88-1.29,5.22-.54l-7.75-4.49h0c-1.36-.86-3.27-.79-5.39.43L74.62,154.76a16.33,16.33,0,0,0-7.39,12.8l.38,165.65c0,2.22.75,3.81,2,4.62h0a3.38,3.38,0,0,0,.41.24l7.65,4.45C76.34,341.75,75.53,340.12,75.52,337.81Z" style="fill:#033029"></path><path d="M285.92,35.74h0c-1.36-.86-3.27-.79-5.39.43L74.62,154.76A15.58,15.58,0,0,0,69,161.07l7.92,4.58a15.54,15.54,0,0,1,5.66-6.3L288.45,40.77c2-1.17,3.88-1.29,5.22-.54Z" style="fill:#fff;opacity:0.30000000000000004"></path><path d="M67.23,167.56l.38,165.65c0,2.22.75,3.81,2,4.62h0a3.38,3.38,0,0,0,.41.24l7.65,4.45c-1.31-.78-2.12-2.41-2.13-4.72l-.37-165.66a14.57,14.57,0,0,1,1.73-6.5L69,161.07A14.66,14.66,0,0,0,67.23,167.56Z" style="opacity:0.2"></path><path d="M293.76,40.28l0,0,0,0Z" style="fill:#ffa8a7"></path><path d="M295.89,45c0-2.31-.82-3.94-2.13-4.72l0,0-.05,0c-1.34-.75-3.19-.63-5.22.54L82.54,159.35a16.27,16.27,0,0,0-7.39,12.8l.37,165.66c0,2.31.82,3.94,2.13,4.72a.41.41,0,0,0,.11.07l.06,0c1.33.7,3.14.57,5.14-.59L288.87,223.47a16.33,16.33,0,0,0,7.39-12.8ZM285.21,217.13,82.83,333.67l-.37-161.54a9.23,9.23,0,0,1,3.74-6.44L288.58,49.15l.36,161.54A9.19,9.19,0,0,1,285.21,217.13Z" style="fill:#033029"></path><path d="M288.58,49.15l-5.24,3,.35,156a9.19,9.19,0,0,1-3.73,6.44L82.81,328.09l0,5.58L285.21,217.13a9.19,9.19,0,0,0,3.73-6.44Z" style="fill:#033029"></path><path d="M288.58,49.15l-5.24,3,.35,156a9.19,9.19,0,0,1-3.73,6.44L82.81,328.09l0,5.58L285.21,217.13a9.19,9.19,0,0,0,3.73-6.44Z" style="opacity:0.30000000000000004"></path><path d="M283.69,208.13l-.35-156L86.2,165.69a9.23,9.23,0,0,0-3.74,6.44l.35,156L280,214.57A9.19,9.19,0,0,0,283.69,208.13Z" style="fill:#455a64"></path></g><g id="freepik--Window--inject-177"><path d="M106.72,346.18l-.35-156.57a15.39,15.39,0,0,1,7-12.1L308,65.43c1.93-1.11,3.67-1.22,4.94-.51l-7.33-4.25h0c-1.28-.81-3.08-.75-5.09.41L105.87,173.17a15.36,15.36,0,0,0-7,12.1l.35,156.57c0,2.09.71,3.59,1.86,4.37h0l.39.23,7.23,4.21C107.49,349.91,106.73,348.36,106.72,346.18Z" style="fill:#033029"></path><path d="M305.58,60.67h0c-1.28-.81-3.08-.75-5.09.41L105.87,173.17a14.69,14.69,0,0,0-5.35,6l7.49,4.33a14.64,14.64,0,0,1,5.34-6L308,65.43c1.93-1.11,3.67-1.22,4.94-.51Z" style="fill:#fff;opacity:0.4"></path><path d="M98.89,185.27l.35,156.57c0,2.09.71,3.59,1.86,4.37h0l.39.23,7.23,4.21c-1.24-.74-2-2.29-2-4.47l-.35-156.57a13.68,13.68,0,0,1,1.64-6.15l-7.49-4.33A13.75,13.75,0,0,0,98.89,185.27Z" style="fill:#fff;opacity:0.30000000000000004"></path><path d="M106.39,198.68l.33,147.5c0,2.18.77,3.73,2,4.47l.11.06,0,0c1.27.67,3,.54,4.86-.55L308.37,238.11a15.43,15.43,0,0,0,7-12.1L315,78.27Z" style="fill:#033029"></path><path d="M106.39,198.68l.33,147.5c0,2.18.77,3.73,2,4.47l.11.06,0,0c1.27.67,3,.54,4.86-.55L308.37,238.11a15.43,15.43,0,0,0,7-12.1L315,78.27Z" style="fill:#fff;opacity:0.5"></path><path d="M307,88.08c1.8-1,3.28-.2,3.28,1.87A7.16,7.16,0,0,1,307,95.6L140.14,192c-1.8,1-3.27.21-3.28-1.87a7.23,7.23,0,0,1,3.26-5.65Z" style="fill:#033029"></path><g style="opacity:0.8"><path d="M307,88.08c1.8-1,3.28-.2,3.28,1.87A7.16,7.16,0,0,1,307,95.6L140.14,192c-1.8,1-3.27.21-3.28-1.87a7.23,7.23,0,0,1,3.26-5.65Z" style="fill:#fff"></path></g><path d="M115.62,200.37a.22.22,0,0,1,.22,0c.13.06.14.3,0,.52l-1.06,1.94,3.56-2.06c.18-.1.33,0,.33.19a.7.7,0,0,1-.33.57l-3.55,2.06,1.06.71c.12.08.11.33,0,.55a.58.58,0,0,1-.22.22.2.2,0,0,1-.24,0L113.82,204a.19.19,0,0,1-.07-.08.5.5,0,0,1,0-.12.68.68,0,0,1,0-.14l.06-.16,1.56-2.87A.7.7,0,0,1,115.62,200.37Z" style="fill:#033029"></path><path d="M124.6,195.18a.24.24,0,0,1,.24,0l1.57,1.06a.16.16,0,0,1,.06.08.31.31,0,0,1,0,.13.78.78,0,0,1,0,.14l-.06.15-1.57,2.87a.64.64,0,0,1-.24.27.26.26,0,0,1-.22,0c-.13-.07-.14-.3,0-.53l1-1.94-3.55,2.06c-.18.1-.33,0-.33-.19a.73.73,0,0,1,.32-.57l3.56-2.05-1.06-.72c-.12-.08-.11-.32,0-.54A.7.7,0,0,1,124.6,195.18Z" style="fill:#033029"></path><path d="M131.17,191.39a1.68,1.68,0,0,1,1.09-.27.74.74,0,0,1,.33-.51h0c.18-.09.32,0,.32.21l0,.84a.74.74,0,0,1-.32.55l-.71.45h0c-.17.1-.32,0-.32-.17a.67.67,0,0,1,.24-.52,1.21,1.21,0,0,0-.59.18,3,3,0,0,0-1.37,2.38c0,.87.62,1.23,1.38.79a3,3,0,0,0,1.21-1.53.67.67,0,0,1,.29-.36.33.33,0,0,1,.16,0c.16,0,.22.2.13.44a4.45,4.45,0,0,1-1.79,2.25c-1.12.65-2,.13-2-1.16A4.47,4.47,0,0,1,131.17,191.39Z" style="fill:#033029"></path><g style="opacity:0.7000000000000001"><path d="M115.62,200.37a.22.22,0,0,1,.22,0c.13.06.14.3,0,.52l-1.06,1.94,3.56-2.06c.18-.1.33,0,.33.19a.7.7,0,0,1-.33.57l-3.55,2.06,1.06.71c.12.08.11.33,0,.55a.58.58,0,0,1-.22.22.2.2,0,0,1-.24,0L113.82,204a.19.19,0,0,1-.07-.08.5.5,0,0,1,0-.12.68.68,0,0,1,0-.14l.06-.16,1.56-2.87A.7.7,0,0,1,115.62,200.37Z" style="fill:#fff"></path><path d="M124.6,195.18a.24.24,0,0,1,.24,0l1.57,1.06a.16.16,0,0,1,.06.08.31.31,0,0,1,0,.13.78.78,0,0,1,0,.14l-.06.15-1.57,2.87a.64.64,0,0,1-.24.27.26.26,0,0,1-.22,0c-.13-.07-.14-.3,0-.53l1-1.94-3.55,2.06c-.18.1-.33,0-.33-.19a.73.73,0,0,1,.32-.57l3.56-2.05-1.06-.72c-.12-.08-.11-.32,0-.54A.7.7,0,0,1,124.6,195.18Z" style="fill:#fff"></path><path d="M131.17,191.39a1.68,1.68,0,0,1,1.09-.27.74.74,0,0,1,.33-.51h0c.18-.09.32,0,.32.21l0,.84a.74.74,0,0,1-.32.55l-.71.45h0c-.17.1-.32,0-.32-.17a.67.67,0,0,1,.24-.52,1.21,1.21,0,0,0-.59.18,3,3,0,0,0-1.37,2.38c0,.87.62,1.23,1.38.79a3,3,0,0,0,1.21-1.53.67.67,0,0,1,.29-.36.33.33,0,0,1,.16,0c.16,0,.22.2.13.44a4.45,4.45,0,0,1-1.79,2.25c-1.12.65-2,.13-2-1.16A4.47,4.47,0,0,1,131.17,191.39Z" style="fill:#fff"></path></g><g style="opacity:0.5"><path d="M118.55,288.79a3.16,3.16,0,0,1-1.59-.41,4.09,4.09,0,0,1-1.77-3.75L115,223.79a11.92,11.92,0,0,1,5.4-9.35l73-42.14a3.64,3.64,0,0,1,5.92,3.38l.17,60.84a11.9,11.9,0,0,1-5.4,9.35l-73,42.14A5.13,5.13,0,0,1,118.55,288.79ZM196,172.51a4.21,4.21,0,0,0-2.07.64l-73,42.14a10.82,10.82,0,0,0-4.91,8.5l.18,60.84a3.11,3.11,0,0,0,1.27,2.89,3.16,3.16,0,0,0,3.17-.36l73-42.14a10.87,10.87,0,0,0,4.91-8.49l-.18-60.85a3.12,3.12,0,0,0-1.27-2.89A2.12,2.12,0,0,0,196,172.51Z" style="fill:#fff"></path></g><path d="M259.45,247.31a1.43,1.43,0,0,1-.68-.17,1.67,1.67,0,0,1-.73-1.5l-.3-103.84a4.14,4.14,0,0,1,1.91-3.3l41-23.68a1.5,1.5,0,0,1,2.41,1.38L303.36,220a4.13,4.13,0,0,1-1.9,3.3l-41,23.68A2,2,0,0,1,259.45,247.31Zm41.46-132.07.24.43-41,23.68a3.16,3.16,0,0,0-1.42,2.45l.3,103.84a.75.75,0,0,0,.24.65.78.78,0,0,0,.69-.12l41-23.68a3.19,3.19,0,0,0,1.41-2.45l-.29-103.84c0-.32-.09-.56-.25-.65a.75.75,0,0,0-.69.12Z" style="fill:#fff"></path><path d="M156.63,273.1c1.52-.87,2.75-.17,2.76,1.58l.09,32.39a6.05,6.05,0,0,1-2.74,4.75l-38.87,22.44c-1.52.88-2.75.17-2.76-1.57l-.09-32.4a6.05,6.05,0,0,1,2.74-4.75Z" style="fill:#033029"></path><g style="opacity:0.2"><path d="M156.63,273.1c1.52-.87,2.75-.17,2.76,1.58l.09,32.39a6.05,6.05,0,0,1-2.74,4.75l-38.87,22.44c-1.52.88-2.75.17-2.76-1.57l-.09-32.4a6.05,6.05,0,0,1,2.74-4.75Z" style="fill:#fff"></path></g><path d="M156.92,275.23a.18.18,0,0,1,.22,0c.09.08.06.3-.06.47l-19.37,27.7,19.47,5.28c.12,0,.15.22,0,.41a.52.52,0,0,1-.22.26.23.23,0,0,1-.16,0l-19.6-5.32L117.74,332a.61.61,0,0,1-.16.16.19.19,0,0,1-.22,0,.41.41,0,0,1,.06-.48L136.79,304l-19.47-5.28c-.12,0-.15-.22-.06-.41a.65.65,0,0,1,.22-.26.27.27,0,0,1,.17,0l19.6,5.32,19.5-27.9A.64.64,0,0,1,156.92,275.23Z" style="fill:#fff"></path><path d="M204.32,246.24c1.52-.87,2.76-.17,2.76,1.58l.09,32.39a6,6,0,0,1-2.74,4.75L165.57,307.4c-1.52.88-2.76.17-2.76-1.57l-.1-32.4a6.06,6.06,0,0,1,2.75-4.75Z" style="fill:#033029"></path><g style="opacity:0.2"><path d="M204.32,246.24c1.52-.87,2.76-.17,2.76,1.58l.09,32.39a6,6,0,0,1-2.74,4.75L165.57,307.4c-1.52.88-2.76.17-2.76-1.57l-.1-32.4a6.06,6.06,0,0,1,2.75-4.75Z" style="fill:#fff"></path></g><path d="M204.61,248.37c.09,0,.17-.05.22,0a.42.42,0,0,1-.05.48l-19.37,27.7,19.46,5.28c.12,0,.15.22.06.41a.65.65,0,0,1-.22.26.27.27,0,0,1-.17,0l-19.6-5.32-19.5,27.9a.64.64,0,0,1-.17.16.2.2,0,0,1-.22,0c-.09-.09-.06-.31.06-.48l19.37-27.7L165,271.81c-.13,0-.15-.22-.06-.41a.52.52,0,0,1,.22-.26.24.24,0,0,1,.16,0l19.6,5.32,19.51-27.9A.61.61,0,0,1,204.61,248.37Z" style="fill:#fff"></path><path d="M251.42,219.14c1.52-.88,2.75-.18,2.75,1.57l.1,32.4a6,6,0,0,1-2.75,4.74l-38.86,22.44c-1.52.88-2.75.17-2.76-1.57l-.09-32.4a6,6,0,0,1,2.74-4.75Z" style="fill:#033029"></path><g style="opacity:0.2"><path d="M251.42,219.14c1.52-.88,2.75-.18,2.75,1.57l.1,32.4a6,6,0,0,1-2.75,4.74l-38.86,22.44c-1.52.88-2.75.17-2.76-1.57l-.09-32.4a6,6,0,0,1,2.74-4.75Z" style="fill:#fff"></path></g><path d="M251.71,221.27a.18.18,0,0,1,.22,0c.09.09.06.3-.06.47L232.5,249.45,252,254.73c.13,0,.15.21.06.41a.54.54,0,0,1-.22.25.24.24,0,0,1-.16,0L232,250.11,212.53,278a.49.49,0,0,1-.16.16.18.18,0,0,1-.22,0c-.09-.09-.07-.3,0-.48L231.57,250l-19.46-5.28c-.12,0-.15-.22-.06-.41a.64.64,0,0,1,.22-.26.27.27,0,0,1,.17,0l19.6,5.32,19.5-27.9A.47.47,0,0,1,251.71,221.27Z" style="fill:#fff"></path><path d="M247.64,147c2.54-1.46,4.6-.29,4.61,2.63a10.1,10.1,0,0,1-4.58,7.92l-38.24,22.07c-2.53,1.47-4.59.3-4.6-2.62a10.08,10.08,0,0,1,4.57-7.92Z" style="fill:#033029"></path><g style="opacity:0.2"><path d="M247.64,147c2.54-1.46,4.6-.29,4.61,2.63a10.1,10.1,0,0,1-4.58,7.92l-38.24,22.07c-2.53,1.47-4.59.3-4.6-2.62a10.08,10.08,0,0,1,4.57-7.92Z" style="fill:#fff"></path></g><path d="M247.64,161.83c2.54-1.46,4.6-.29,4.61,2.63a10.09,10.09,0,0,1-4.58,7.92l-38.24,22.08c-2.53,1.46-4.59.29-4.6-2.63a10.08,10.08,0,0,1,4.57-7.92Z" style="fill:#033029"></path><g style="opacity:0.2"><path d="M247.64,161.83c2.54-1.46,4.6-.29,4.61,2.63a10.09,10.09,0,0,1-4.58,7.92l-38.24,22.08c-2.53,1.46-4.59.29-4.6-2.63a10.08,10.08,0,0,1,4.57-7.92Z" style="fill:#fff"></path></g><path d="M247.64,176.63c2.54-1.46,4.6-.28,4.61,2.63a10.09,10.09,0,0,1-4.58,7.92l-38.24,22.08c-2.53,1.46-4.59.29-4.6-2.63a10.08,10.08,0,0,1,4.57-7.92Z" style="fill:#033029"></path><g style="opacity:0.2"><path d="M247.64,176.63c2.54-1.46,4.6-.28,4.61,2.63a10.09,10.09,0,0,1-4.58,7.92l-38.24,22.08c-2.53,1.46-4.59.29-4.6-2.63a10.08,10.08,0,0,1,4.57-7.92Z" style="fill:#fff"></path></g><path d="M315,69.44c0-2.19-.77-3.73-2-4.47l0,0,0,0c-1.27-.71-3-.6-4.94.51L113.35,177.51a15.39,15.39,0,0,0-7,12.1l0,9.07L315,78.27Z" style="fill:#033029"></path><path d="M315,69.44c0-2.19-.77-3.73-2-4.47l0,0,0,0c-1.27-.71-3-.6-4.94.51L113.35,177.51a15.39,15.39,0,0,0-7,12.1l0,9.07L315,78.27Z" style="opacity:0.30000000000000004"></path><g style="opacity:0.5"><path d="M115.63,183.85c1.06-.61,1.92-.12,1.92,1.09a4.18,4.18,0,0,1-1.9,3.3c-1.06.61-1.92.12-1.92-1.09A4.22,4.22,0,0,1,115.63,183.85Z" style="fill:#fff"></path><path d="M120.85,180.84c1.06-.61,1.92-.12,1.92,1.09a4.22,4.22,0,0,1-1.9,3.3c-1.06.61-1.92.12-1.92-1.09A4.22,4.22,0,0,1,120.85,180.84Z" style="fill:#fff"></path><path d="M126.07,177.83c1.06-.61,1.92-.12,1.92,1.09a4.22,4.22,0,0,1-1.9,3.3c-1.06.61-1.92.12-1.92-1.1A4.19,4.19,0,0,1,126.07,177.83Z" style="fill:#fff"></path></g><path d="M115.63,183.85c1.06-.61,1.92-.12,1.92,1.09a4.18,4.18,0,0,1-1.9,3.3c-1.06.61-1.92.12-1.92-1.09A4.22,4.22,0,0,1,115.63,183.85Z" style="fill:#033029"></path><path d="M120.85,180.84c1.06-.61,1.92-.12,1.92,1.09a4.22,4.22,0,0,1-1.9,3.3c-1.06.61-1.92.12-1.92-1.09A4.22,4.22,0,0,1,120.85,180.84Z" style="fill:#033029"></path><path d="M126.07,177.83c1.06-.61,1.92-.12,1.92,1.09a4.22,4.22,0,0,1-1.9,3.3c-1.06.61-1.92.12-1.92-1.1A4.19,4.19,0,0,1,126.07,177.83Z" style="fill:#033029"></path></g><g id="freepik--Plants--inject-177"><path d="M120.71,412.32l-13,.38-13-.38c-.56,8.77,1.15,17.71,3.51,22.07h0a6,6,0,0,0,2.57,2.62,15.25,15.25,0,0,0,13.83,0,5.75,5.75,0,0,0,2.57-2.69C119.58,429.94,121.27,421.05,120.71,412.32Z" style="fill:#fff"></path><path d="M116.88,407c5.09,2.94,5.11,7.7.06,10.64s-13.28,2.94-18.37,0-5.11-7.7,0-10.64S111.79,404.07,116.88,407Z" style="fill:#ebebeb"></path><path d="M114.87,408.17c4,2.29,4,6,0,8.3a15.78,15.78,0,0,1-14.32,0c-4-2.29-4-6,0-8.3A15.8,15.8,0,0,1,114.87,408.17Z" style="fill:#e0e0e0"></path><g style="opacity:0.15"><path d="M114.87,408.17c4,2.29,4,6,0,8.3a15.78,15.78,0,0,1-14.32,0c-4-2.29-4-6,0-8.3A15.8,15.8,0,0,1,114.87,408.17Z"></path></g><path d="M101.1,385.75c-2.11-2.63-4.56-5-6.5-7.74-1.32-1.88-2.42-4.18-1.87-6.41a5.74,5.74,0,0,1,4.55-4,8.71,8.71,0,0,1,6.1,1.36,18.84,18.84,0,0,1,4.61,4.39,45.79,45.79,0,0,1,9.65,32.72,6.83,6.83,0,0,1-1.2,3.76,3.77,3.77,0,0,1-3.88,1.19c-3.54-1-3.07-5.83-3.65-8.64a39.07,39.07,0,0,0-7.81-16.63Z" style="fill:#033029"></path><path d="M101.1,385.75c-2.11-2.63-4.56-5-6.5-7.74-1.32-1.88-2.42-4.18-1.87-6.41a5.74,5.74,0,0,1,4.55-4,8.71,8.71,0,0,1,6.1,1.36,18.84,18.84,0,0,1,4.61,4.39,45.79,45.79,0,0,1,9.65,32.72,6.83,6.83,0,0,1-1.2,3.76,3.77,3.77,0,0,1-3.88,1.19c-3.54-1-3.07-5.83-3.65-8.64a39.07,39.07,0,0,0-7.81-16.63Z" style="fill:#fff;opacity:0.2"></path><path d="M112.78,407.46a.31.31,0,0,1-.25-.29c-.25-5.68-2.1-25.06-15.45-36.06a.31.31,0,1,1,.39-.48c13.55,11.16,15.42,30.77,15.68,36.51a.32.32,0,0,1-.3.32Z" style="fill:#f0f0f0"></path><path d="M114.73,408.07a9.52,9.52,0,0,1-4.34,6,12.19,12.19,0,0,1-6.56,1.09,28.34,28.34,0,0,1-6.66-1.58c-1.08-.36-2.27-.84-2.38-2.17a2.35,2.35,0,0,1,.76-1.87,8.18,8.18,0,0,1,.69-.59.68.68,0,0,0-.37-1.23,17.62,17.62,0,0,1-1.9-.24,8.32,8.32,0,0,1-4-1.8A6.62,6.62,0,0,1,88.15,403a2.54,2.54,0,0,1,.26-2.68,3,3,0,0,1,1.48-.64c.47-.1,1-.19,1.42-.26a.63.63,0,0,0,.15-1.21l-2-.84a3.74,3.74,0,0,1-1.53-.95,3.35,3.35,0,0,1-.39-2.78c.25-1.26.68-2.47,1-3.72a8,8,0,0,0,.13-3.82,32,32,0,0,1,11.29.76,8.18,8.18,0,0,1,3.08,1.34,4.55,4.55,0,0,1,1.45,4.15.29.29,0,0,0,.55.16l1.28-2.38a1.54,1.54,0,0,1,2-.64,9.25,9.25,0,0,1,2.95,2.32,5.13,5.13,0,0,1,1.26,3.77,33.46,33.46,0,0,1-.94,5.53.51.51,0,0,0,.8.54l.06-.05a1.76,1.76,0,0,1,1.21-.35c1.14.14,1.43,1.29,1.51,2.28A18.87,18.87,0,0,1,114.73,408.07Z" style="fill:#033029"></path><path d="M114.73,408.07a9.52,9.52,0,0,1-4.34,6,12.19,12.19,0,0,1-6.56,1.09,28.34,28.34,0,0,1-6.66-1.58c-1.08-.36-2.27-.84-2.38-2.17a2.35,2.35,0,0,1,.76-1.87,8.18,8.18,0,0,1,.69-.59.68.68,0,0,0-.37-1.23,17.62,17.62,0,0,1-1.9-.24,8.32,8.32,0,0,1-4-1.8A6.62,6.62,0,0,1,88.15,403a2.54,2.54,0,0,1,.26-2.68,3,3,0,0,1,1.48-.64c.47-.1,1-.19,1.42-.26a.63.63,0,0,0,.15-1.21l-2-.84a3.74,3.74,0,0,1-1.53-.95,3.35,3.35,0,0,1-.39-2.78c.25-1.26.68-2.47,1-3.72a8,8,0,0,0,.13-3.82,32,32,0,0,1,11.29.76,8.18,8.18,0,0,1,3.08,1.34,4.55,4.55,0,0,1,1.45,4.15.29.29,0,0,0,.55.16l1.28-2.38a1.54,1.54,0,0,1,2-.64,9.25,9.25,0,0,1,2.95,2.32,5.13,5.13,0,0,1,1.26,3.77,33.46,33.46,0,0,1-.94,5.53.51.51,0,0,0,.8.54l.06-.05a1.76,1.76,0,0,1,1.21-.35c1.14.14,1.43,1.29,1.51,2.28A18.87,18.87,0,0,1,114.73,408.07Z" style="opacity:0.2"></path><path d="M114.73,408.07a9.52,9.52,0,0,1-4.34,6,12.19,12.19,0,0,1-6.56,1.09,28.34,28.34,0,0,1-6.66-1.58c-1.08-.36-2.27-.84-2.38-2.17a2.35,2.35,0,0,1,.76-1.87,8.18,8.18,0,0,1,.69-.59.68.68,0,0,0-.37-1.23,17.62,17.62,0,0,1-1.9-.24,8.32,8.32,0,0,1-4-1.8A6.62,6.62,0,0,1,88.15,403a2.54,2.54,0,0,1,.26-2.68,3,3,0,0,1,1.48-.64c.47-.1,1-.19,1.42-.26a.63.63,0,0,0,.15-1.21l-2-.84a3.74,3.74,0,0,1-1.53-.95,3.35,3.35,0,0,1-.39-2.78c.25-1.26.68-2.47,1-3.72a8,8,0,0,0,.13-3.82,32,32,0,0,1,11.29.76,8.18,8.18,0,0,1,3.08,1.34,4.55,4.55,0,0,1,1.45,4.15.29.29,0,0,0,.55.16l1.28-2.38a1.54,1.54,0,0,1,2-.64,9.25,9.25,0,0,1,2.95,2.32,5.13,5.13,0,0,1,1.26,3.77,33.46,33.46,0,0,1-.94,5.53.51.51,0,0,0,.8.54l.06-.05a1.76,1.76,0,0,1,1.21-.35c1.14.14,1.43,1.29,1.51,2.28A18.87,18.87,0,0,1,114.73,408.07Z" style="fill:#fff;opacity:0.2"></path><path d="M108.74,413.78a44.92,44.92,0,0,0-3-8.8.3.3,0,0,0-.11-.23l-.21-.46a28.12,28.12,0,0,1,3-10.07.32.32,0,0,0-.12-.43.31.31,0,0,0-.42.12,28.75,28.75,0,0,0-3,9.36,41.21,41.21,0,0,0-13-15.58.31.31,0,1,0-.35.51,40.91,40.91,0,0,1,13.14,16.06,19,19,0,0,0-10.75-1.46.31.31,0,0,0-.25.36.32.32,0,0,0,.25.25h.11a18.42,18.42,0,0,1,11.07,1.77,45.53,45.53,0,0,1,3,8.71.31.31,0,0,0,.24.25h.12A.3.3,0,0,0,108.74,413.78Z" style="fill:#f0f0f0"></path><path d="M426.25,284.58l-13.88.4-13.89-.4c-.59,9.38,1.24,18.93,3.76,23.6h0A6.37,6.37,0,0,0,405,311a16.33,16.33,0,0,0,14.79,0,6.11,6.11,0,0,0,2.74-2.87C425,303.41,426.85,293.91,426.25,284.58Z" style="fill:#fff"></path><path d="M422.16,278.89c5.44,3.14,5.46,8.23.06,11.38s-14.2,3.14-19.64,0-5.47-8.24-.06-11.38S416.72,275.75,422.16,278.89Z" style="fill:#ebebeb"></path><path d="M420,280.14c4.25,2.45,4.27,6.42.05,8.87s-11.07,2.46-15.32,0-4.26-6.43-.05-8.88A16.88,16.88,0,0,1,420,280.14Z" style="fill:#e0e0e0"></path><g style="opacity:0.15"><path d="M420,280.14c4.25,2.45,4.27,6.42.05,8.87s-11.07,2.46-15.32,0-4.26-6.43-.05-8.88A16.88,16.88,0,0,1,420,280.14Z"></path></g><path d="M435.2,225.32c-31.29,10.25-31.58,31.19-24.52,46.09,1.78,3,7.16,4.64,11.85-13.9l-8.22,1.05,9.58-4.85,2.48-7.44-8,.6,10.14-4.27A149.28,149.28,0,0,1,435.2,225.32Z" style="fill:#033029"></path><path d="M435.2,225.32c-31.29,10.25-31.58,31.19-24.52,46.09,1.78,3,7.16,4.64,11.85-13.9l-8.22,1.05,9.58-4.85,2.48-7.44-8,.6,10.14-4.27A149.28,149.28,0,0,1,435.2,225.32Z" style="opacity:0.2"></path><path d="M435.2,225.32c-31.29,10.25-31.58,31.19-24.52,46.09,1.78,3,7.16,4.64,11.85-13.9l-8.22,1.05,9.58-4.85,2.48-7.44-8,.6,10.14-4.27A149.28,149.28,0,0,1,435.2,225.32Z" style="fill:#fff;opacity:0.2"></path><path d="M426.35,230.56c-16.5,12.52-18,26.88-13.33,41.87C411.37,259.23,409.59,245.89,426.35,230.56Z" style="fill:#fff"></path><path d="M382.2,246.59c30.84,4.34,34.59,23.79,30.49,38.85-1.15,3.1-5.9,5.51-13.34-11l7.83-.38-9.73-2.93-3.55-6.52,7.53-.77-10.15-2.29A141.39,141.39,0,0,0,382.2,246.59Z" style="fill:#033029"></path><path d="M382.2,246.59c30.84,4.34,34.59,23.79,30.49,38.85-1.15,3.1-5.9,5.51-13.34-11l7.83-.38-9.73-2.93-3.55-6.52,7.53-.77-10.15-2.29A141.39,141.39,0,0,0,382.2,246.59Z" style="fill:#fff;opacity:0.2"></path><path d="M382.2,246.59c30.84,4.34,34.59,23.79,30.49,38.85-1.15,3.1-5.9,5.51-13.34-11l7.83-.38-9.73-2.93-3.55-6.52,7.53-.77-10.15-2.29A141.39,141.39,0,0,0,382.2,246.59Z" style="opacity:0.1"></path><path d="M391.31,250c17.45,8.92,21.22,22,19.37,36.78C410,274.21,409.47,261.49,391.31,250Z" style="fill:#fff"></path><path d="M444.23,253.88c-28.29.46-33.84,17.57-31.84,31.6.7,2.93,4.71,5.63,13.26-8.4l-7-1.22,9.09-1.56,3.93-5.47-6.7-1.54,9.4-.92A128.86,128.86,0,0,1,444.23,253.88Z" style="fill:#033029"></path><path d="M435.63,255.93c-16.72,6.09-21.59,17.49-21.57,31C416.06,275.66,418,264.25,435.63,255.93Z" style="fill:#fff"></path><path d="M444.23,253.88c-28.29.46-33.84,17.57-31.84,31.6.7,2.93,4.71,5.63,13.26-8.4l-7-1.22,9.09-1.56,3.93-5.47-6.7-1.54,9.4-.92A128.86,128.86,0,0,1,444.23,253.88Z" style="fill:#fff;opacity:0.2"></path></g><g id="freepik--character-3--inject-177"><polygon points="335.2 144.01 335.18 153.29 336.83 167.84 339.25 182.01 347.54 182.98 344.15 167.84 337.72 142.79 335.2 144.01" style="fill:#ffa8a7"></polygon><path d="M338.49,180.27c5.72-2.13,9.46.87,9.46.87l.94,24.27-10.21-5.84Z" style="fill:#033029"></path><path d="M338.49,180.27c5.72-2.13,9.46.87,9.46.87l.94,24.27-10.21-5.84Z" style="fill:#033029"></path><path d="M338.49,180.27c5.72-2.13,9.46.87,9.46.87l.94,24.27-10.21-5.84Z" style="opacity:0.30000000000000004"></path><path d="M338.49,180.27c5.72-2.13,9.46.87,9.46.87l.94,24.27-10.21-5.84Z" style="fill:#fff;opacity:0.30000000000000004"></path><path d="M333.4,110.5c.94-.55,1.7-.11,1.71,1l.3,106.28a3.75,3.75,0,0,1-1.7,2.94l-42,24.24c-.94.54-1.7.1-1.71-1l-.3-106.27a3.75,3.75,0,0,1,1.7-3Z" style="fill:#033029"></path><g style="opacity:0.2"><path d="M333.4,110.5c.94-.55,1.7-.11,1.71,1l.3,106.28a3.75,3.75,0,0,1-1.7,2.94l-42,24.24c-.94.54-1.7.1-1.71-1l-.3-106.27a3.75,3.75,0,0,1,1.7-3Z"></path></g><g style="opacity:0.1"><path d="M333.4,110.5c.94-.55,1.7-.11,1.71,1l.3,106.28a3.75,3.75,0,0,1-1.7,2.94l-42,24.24c-.94.54-1.7.1-1.71-1l-.3-106.27a3.75,3.75,0,0,1,1.7-3Z" style="fill:#fff"></path></g><path d="M332.82,114.16c.4-.07.49.17.39.47L313,177.44l20.47,39.34a.76.76,0,0,1-.21.77c-.33.24-.49.22-.56.09l-20.16-38.75-19.88,61.86a.92.92,0,0,1-.38.51c-.4.07-.49-.17-.39-.47L312.1,178l-20.47-39.34a.76.76,0,0,1,.21-.77c.34-.24.49-.23.56-.09l20.16,38.75,19.88-61.86A.92.92,0,0,1,332.82,114.16Z" style="fill:#fff"></path><path d="M308.57,194l-9-3-5.93-22.41a3.38,3.38,0,0,1,.17-2l.62-1.56a6.39,6.39,0,0,0,.46-2.59l-.12-3.43a1,1,0,0,0-1-1h0a1,1,0,0,0-1,.86l-.53,3-1.26,1.45-1.14-4.07v-5.17l-2.56,3.72a4.69,4.69,0,0,0-.77,3.43l1.07,6.51,2.89,25.19a10.05,10.05,0,0,0,6.37,8.23l9.47,3.66Z" style="fill:#ffa8a7"></path><path d="M327.88,330.35a4.22,4.22,0,0,1-3.79,2.54,18.6,18.6,0,0,1-4.78-.61c-3.55-.64-7,0-10.53-.09a14.92,14.92,0,0,1-3.46-.38,5.67,5.67,0,0,1-3-1.74,3.91,3.91,0,0,1-.85-1.86,3.63,3.63,0,0,0,.85,2.9,5.67,5.67,0,0,0,3,1.74,14.92,14.92,0,0,0,3.46.38c3.55.08,7-.55,10.53.09a18.6,18.6,0,0,0,4.78.61,4.22,4.22,0,0,0,3.79-2.54,4,4,0,0,0,.12-1.64A3.19,3.19,0,0,1,327.88,330.35Z" style="fill:#455a64"></path><path d="M327.79,327.4l-.66-3.23a4.66,4.66,0,0,0-.54-1.64,1.62,1.62,0,0,0-1.44-.82c-1.95-.26-4.69-1-6.3.15a14.53,14.53,0,0,1-8.71,2.52,30,30,0,0,0-4.82-.19,4.3,4.3,0,0,0-3.73,2.62,3,3,0,0,0-.08,1.4,3.91,3.91,0,0,0,.85,1.86,5.67,5.67,0,0,0,3,1.74,14.92,14.92,0,0,0,3.46.38c3.55.08,7-.55,10.53.09a18.6,18.6,0,0,0,4.78.61,4.22,4.22,0,0,0,3.79-2.54,3.19,3.19,0,0,0,.12-.6A7.81,7.81,0,0,0,327.79,327.4Z" style="fill:#37474f"></path><path d="M318.37,318.47l-.13,4.21a1.67,1.67,0,0,0,1.54,1.72,26,26,0,0,0,4.24,0,2.39,2.39,0,0,0,2.17-2.25l.17-3.11Z" style="fill:#ffa8a7"></path><path d="M345.84,316.23a3.19,3.19,0,0,1-.56,1.74,3.11,3.11,0,0,1-2,1.12,5,5,0,0,1-4.93-2c-.53-.76-.83-1.67-1.33-2.45a11.25,11.25,0,0,0-2.77-2.69,11.57,11.57,0,0,1-2.78-2.67,3.91,3.91,0,0,1-.53-3.55,2.43,2.43,0,0,0-.26.44,4,4,0,0,0,.5,3.79,11.79,11.79,0,0,0,2.84,2.75,11.6,11.6,0,0,1,2.82,2.77c.51.81.81,1.74,1.35,2.53a5.1,5.1,0,0,0,5,2.09,3.24,3.24,0,0,0,2-1.15,4,4,0,0,0,.59-2.42A2.45,2.45,0,0,0,345.84,316.23Z" style="fill:#455a64"></path><path d="M344.57,311c-1.28-2.24-3.92-3.87-5.95-5.46a7.67,7.67,0,0,0-3.95-1.79,3.7,3.7,0,0,0-3.67,1.88.56.56,0,0,0,0,.12,3.91,3.91,0,0,0,.53,3.55,11.57,11.57,0,0,0,2.78,2.67,11.25,11.25,0,0,1,2.77,2.69c.5.78.8,1.69,1.33,2.45a5,5,0,0,0,4.93,2,3.11,3.11,0,0,0,2-1.12,3.19,3.19,0,0,0,.56-1.74c0-.2,0-.4,0-.6A9.85,9.85,0,0,0,344.57,311Z" style="fill:#37474f"></path><path d="M339,309v3.82a6.41,6.41,0,0,0,6-.26l.36-3.44Z" style="fill:#ffa8a7"></path><path d="M346.33,239.63c1.15,3.45-.26,19.79-.93,35.47,2.49,5.93,1.82,22.75.38,34.7,0,0-2.48,1.53-7,0l-5.64-33-.79-18.64s-1.41,16.54-3,27.15c1.53,8.12,1.15,9.65-2.63,34.64a9.43,9.43,0,0,1-8.46,0c-2.13-35.11-1.35-67.11-.94-78.61Z" style="fill:#455a64"></path><path d="M332.86,269.53l-.64-15.2c3.93,0,7.58-2.94,10.35-5.72a17.6,17.6,0,0,1-7.83,6.85Z" style="opacity:0.30000000000000004"></path><path d="M316.71,242.29c17.53,7.34,28.89.71,30.43-2.75-.81-12.11,2.06-26.29,1.84-32.31s-1-12.81-10.3-11.45l-9.93,1-5,1.22-6,12.55Z" style="fill:#033029"></path><path d="M316.71,242.29c17.53,7.34,28.89.71,30.43-2.75-.81-12.11,2.06-26.29,1.84-32.31s-1-12.81-10.3-11.45l-9.93,1-5,1.22-6,12.55Z" style="opacity:0.2"></path><path d="M316.71,242.29c17.53,7.34,28.89.71,30.43-2.75-.81-12.11,2.06-26.29,1.84-32.31s-1-12.81-10.3-11.45l-9.93,1-5,1.22-6,12.55Z" style="fill:#fff;opacity:0.30000000000000004"></path><path d="M338.68,191a2.65,2.65,0,0,0,1.94-.66,1.88,1.88,0,0,0,.46-1.66,1.84,1.84,0,0,0,1.34-1.08,2.12,2.12,0,0,0-.31-1.82,3,3,0,0,0,2-1.61,3.21,3.21,0,0,0,.09-2.61,2.83,2.83,0,0,0,2-1.93,3,3,0,0,0-.56-2.83A3.81,3.81,0,0,0,346,173a4,4,0,0,0-3.26-2.2,4,4,0,0,0-1.28-3.52,3.8,3.8,0,0,0-3.61-.71,3.47,3.47,0,0,0-5.79-1,2.63,2.63,0,0,0-2.33-.86,2.73,2.73,0,0,0-2.12,1.39,3.55,3.55,0,0,0-5,3.4,2.12,2.12,0,0,0-1.5,2.07,2.22,2.22,0,0,0,1.73,2,49.48,49.48,0,0,0,4.66,13.64c1,1.92,2.19,3.86,4.1,4.85S336.91,192.53,338.68,191Z" style="fill:#455a64"></path><path d="M338.68,191a2.65,2.65,0,0,0,1.94-.66,1.88,1.88,0,0,0,.46-1.66,1.84,1.84,0,0,0,1.34-1.08,2.12,2.12,0,0,0-.31-1.82,3,3,0,0,0,2-1.61,3.21,3.21,0,0,0,.09-2.61,2.83,2.83,0,0,0,2-1.93,3,3,0,0,0-.56-2.83A3.81,3.81,0,0,0,346,173a4,4,0,0,0-3.26-2.2,4,4,0,0,0-1.28-3.52,3.8,3.8,0,0,0-3.61-.71,3.47,3.47,0,0,0-5.79-1,2.63,2.63,0,0,0-2.33-.86,2.73,2.73,0,0,0-2.12,1.39,3.55,3.55,0,0,0-5,3.4,2.12,2.12,0,0,0-1.5,2.07,2.22,2.22,0,0,0,1.73,2,49.48,49.48,0,0,0,4.66,13.64c1,1.92,2.19,3.86,4.1,4.85S336.91,192.53,338.68,191Z" style="fill:#033029"></path><path d="M338.68,191a2.65,2.65,0,0,0,1.94-.66,1.88,1.88,0,0,0,.46-1.66,1.84,1.84,0,0,0,1.34-1.08,2.12,2.12,0,0,0-.31-1.82,3,3,0,0,0,2-1.61,3.21,3.21,0,0,0,.09-2.61,2.83,2.83,0,0,0,2-1.93,3,3,0,0,0-.56-2.83A3.81,3.81,0,0,0,346,173a4,4,0,0,0-3.26-2.2,4,4,0,0,0-1.28-3.52,3.8,3.8,0,0,0-3.61-.71,3.47,3.47,0,0,0-5.79-1,2.63,2.63,0,0,0-2.33-.86,2.73,2.73,0,0,0-2.12,1.39,3.55,3.55,0,0,0-5,3.4,2.12,2.12,0,0,0-1.5,2.07,2.22,2.22,0,0,0,1.73,2,49.48,49.48,0,0,0,4.66,13.64c1,1.92,2.19,3.86,4.1,4.85S336.91,192.53,338.68,191Z" style="opacity:0.7000000000000001"></path><polygon points="322.14 179.81 320.09 183.38 322.34 184.21 322.14 179.81" style="fill:#f28f8f"></polygon><path d="M322.85,173.58a33.33,33.33,0,0,0-.59,15.19,5.25,5.25,0,0,0,.95,2.41,3.78,3.78,0,0,0,2.61,1.2,11.17,11.17,0,0,0,2.93-.28v4.65c3.53.83,7.16,1.16,9.93-1V191a12.64,12.64,0,0,1-6.16.39c-2.44-1.32-2.93-5.78-2.59-6.95a1.85,1.85,0,0,0,1.91.67,2.61,2.61,0,0,0,1.58-1.26,5.23,5.23,0,0,0,.59-2,3.55,3.55,0,0,0-.36-2.45,2.55,2.55,0,0,0-2.76-.93,4,4,0,0,0-2.33,1.94,7.91,7.91,0,0,0-.41.89.55.55,0,0,1-1.07-.13,7.48,7.48,0,0,1,.7-3.9,2.7,2.7,0,0,1-2-1.22,2.54,2.54,0,0,1-.39-2.23A7.64,7.64,0,0,1,322.85,173.58Z" style="fill:#ffa8a7"></path><path d="M335.2,144l-1.63-3.89-.82-3.69a1,1,0,0,1,.63-1.11h0a1,1,0,0,1,1.19.59l.69,2v-5.66l2.36,4.23a3.68,3.68,0,0,1,.45,2.08l-.35,4.22Z" style="fill:#ffa8a7"></path><path d="M323.74,198c-5.59-1.85-15.54-4.85-15.54-4.85-4.46,4.5-4.08,11.77-4.08,11.77l13.55,5.64C330.6,214.62,332.49,200.86,323.74,198Z" style="fill:#033029"></path><path d="M323.74,198c-5.59-1.85-15.54-4.85-15.54-4.85-4.46,4.5-4.08,11.77-4.08,11.77l13.55,5.64C330.6,214.62,332.49,200.86,323.74,198Z" style="opacity:0.30000000000000004"></path><path d="M323.74,198c-5.59-1.85-15.54-4.85-15.54-4.85-4.46,4.5-4.08,11.77-4.08,11.77l13.55,5.64C330.6,214.62,332.49,200.86,323.74,198Z" style="fill:#fff;opacity:0.30000000000000004"></path></g><g id="freepik--character-2--inject-177"><path d="M328.84,317.59,310,303.65l-7.26-21.83c0-1.63-.06-3.28-.1-4.92a2.68,2.68,0,0,0-1.48-2.37,12.88,12.88,0,0,0-4.36-1.24,8.55,8.55,0,0,0-1.41-2.89,1.19,1.19,0,0,0-1.46-.31h0a1.19,1.19,0,0,0-.48,1.69,19.67,19.67,0,0,1,3,7.87,9.82,9.82,0,0,1-2.65-2,1.62,1.62,0,0,0-2.65.37v0a13.57,13.57,0,0,0,6.36,6.18l3.42,22.38a9.38,9.38,0,0,0,3,5.58l13.95,12.53Z" style="fill:#ffa8a7"></path><path d="M310,303.65,306.42,293a25.47,25.47,0,0,0-5.05,15.48,9.36,9.36,0,0,0,2.52,3.73l13.95,12.53,11-7.12Z" style="fill:#f28f8f"></path><path d="M314.87,451.7a5,5,0,0,1-3.56,2.15,16.07,16.07,0,0,1-4.88-.31,32.42,32.42,0,0,0-7.3-.19,36.32,36.32,0,0,1-4.53.33,7.23,7.23,0,0,1-4.27-1.35,4.36,4.36,0,0,1-1.6-2.72,4.1,4.1,0,0,0,1.6,3.67,7.23,7.23,0,0,0,4.27,1.35,36.32,36.32,0,0,0,4.53-.33,32.42,32.42,0,0,1,7.3.19,17.29,17.29,0,0,0,5,.43,5,5,0,0,0,3.56-2.15Z" style="fill:#263238"></path><path d="M297.17,448.82c1.36,0,.86-2,2.16-3.36-.53,0-1.06,0-1.59,0C296.58,447.17,296.25,448.82,297.17,448.82Z" style="fill:#fff"></path><path d="M300,448.72c1.37,0,1-2.4,2.35-3.8-.3.1-.62.19-.93.26s-.54.11-.81.15C299.41,447,299.07,448.72,300,448.72Z" style="fill:#fff"></path><path d="M313.46,444.11a1.84,1.84,0,0,0-.7-1.1l-7.36-.19a6.31,6.31,0,0,1-3,2.1c-1.34,1.4-1,3.8-2.35,3.8-.93,0-.59-1.69.61-3.39-.42.06-.85.1-1.28.13-1.3,1.35-.8,3.36-2.16,3.36-.92,0-.59-1.65.57-3.32h-1l-.94-.06c-2.7,2.14-2.93,4.46-2.58,8.1a11,11,0,0,0,1.41.15,36.32,36.32,0,0,0,4.53-.33,32.42,32.42,0,0,1,7.3.19,16.07,16.07,0,0,0,4.88.31,5,5,0,0,0,3.56-2.15Z" style="fill:#455a64"></path><path d="M295.77,445.43a11.58,11.58,0,0,0-3.67,0,4.41,4.41,0,0,0-3.31,2.88,3.36,3.36,0,0,0-.06,1.3,4.36,4.36,0,0,0,1.6,2.72,6.28,6.28,0,0,0,2.86,1.2C292.84,449.89,293.07,447.57,295.77,445.43Z" style="fill:#fff"></path><path d="M305.19,440.73v3.54a1.47,1.47,0,0,0,1.46,1.46h3.71a2.39,2.39,0,0,0,2.38-2.31l.09-2.69Z" style="fill:#ffa8a7"></path><path d="M329.7,439.15a2.71,2.71,0,0,1-2.24,1.56,4.68,4.68,0,0,1-2.82-.69c-1.27-.81-1.77-2.08-2.64-3.23a19,19,0,0,0-3.08-3,10.29,10.29,0,0,1-2.93-3.41,4.47,4.47,0,0,1-.35-1.25,4.4,4.4,0,0,0,.35,2.4,10.16,10.16,0,0,0,2.93,3.4,19.49,19.49,0,0,1,3.08,3c.87,1.14,1.37,2.42,2.64,3.23a4.68,4.68,0,0,0,2.82.69,2.73,2.73,0,0,0,2.24-1.56,6.35,6.35,0,0,0,.13-2A2.72,2.72,0,0,1,329.7,439.15Z" style="fill:#263238"></path><path d="M321.34,431.38a1,1,0,0,0-.18.6.64.64,0,0,0,.4.46.88.88,0,0,0,.83-.21,3.81,3.81,0,0,0,.57-.69,4.38,4.38,0,0,1,1.9-1.38,4.75,4.75,0,0,1,1.13-.25l-.92-.83a4.46,4.46,0,0,0-1.68.41A4.68,4.68,0,0,0,321.34,431.38Z" style="fill:#fff"></path><path d="M321.54,428.46a4.63,4.63,0,0,0-2.05,1.89.89.89,0,0,0-.18.6.62.62,0,0,0,.4.46.89.89,0,0,0,.83-.21,4.75,4.75,0,0,0,.57-.69,4.4,4.4,0,0,1,1.89-1.38,4.2,4.2,0,0,1,1.86-.24l-.91-.83A4.65,4.65,0,0,0,321.54,428.46Z" style="fill:#fff"></path><path d="M323.37,427.54a9.45,9.45,0,0,0-2.89-1.93,3.84,3.84,0,0,0-4,.54,3.45,3.45,0,0,0-.88,3,4.47,4.47,0,0,0,.35,1.25,6.37,6.37,0,0,0,.91,1.44C317.25,428.66,320,427.18,323.37,427.54Z" style="fill:#fff"></path><path d="M329.77,436.05a6.55,6.55,0,0,0-.72-3.1l-1.79-1.87L326,429.91a4.75,4.75,0,0,0-1.13.25,4.38,4.38,0,0,0-1.9,1.38,3.81,3.81,0,0,1-.57.69.88.88,0,0,1-.83.21.64.64,0,0,1-.4-.46,1,1,0,0,1,.18-.6,4.68,4.68,0,0,1,2.05-1.89,4.46,4.46,0,0,1,1.68-.41l-.21-.19a4.2,4.2,0,0,0-1.86.24,4.4,4.4,0,0,0-1.89,1.38,4.75,4.75,0,0,1-.57.69.89.89,0,0,1-.83.21.62.62,0,0,1-.4-.46.89.89,0,0,1,.18-.6,4.57,4.57,0,0,1,4.46-2.29l0,0-.55-.49c-3.37-.36-6.12,1.12-6.47,4.28a15.67,15.67,0,0,0,2,2,19,19,0,0,1,3.08,3c.87,1.15,1.37,2.42,2.64,3.23a4.68,4.68,0,0,0,2.82.69,2.33,2.33,0,0,0,2.37-2.38C329.87,437.5,329.79,436.37,329.77,436.05Z" style="fill:#455a64"></path><path d="M323.32,430.45l.21,3.8a5.06,5.06,0,0,0,5.76-.25l.16-3.55Z" style="fill:#ffa8a7"></path><path d="M328.4,348.88a4.54,4.54,0,0,1-.36-.6,34.53,34.53,0,0,1-24.73,2.81c-1.76,13.05-3.26,35.13-2.34,49.7.77,17,3.89,41,3.89,41,4.07,1.22,7.13.47,8.28-.41,1.36-16.83,4.34-28.36,2-39.49,1.54-7.77,2.54-17.54,2.54-17.54l1.17,17.18,4,30.22a7.14,7.14,0,0,0,7.15-.37c2.89-17.27,4-29,1.45-37.56C335.32,365.45,335.52,358.2,328.4,348.88Z" style="fill:#033029"></path><path d="M328.4,348.88a4.54,4.54,0,0,1-.36-.6,34.53,34.53,0,0,1-24.73,2.81c-1.76,13.05-3.26,35.13-2.34,49.7.77,17,3.89,41,3.89,41,4.07,1.22,7.13.47,8.28-.41,1.36-16.83,4.34-28.36,2-39.49,1.54-7.77,2.54-17.54,2.54-17.54l1.17,17.18,4,30.22a7.14,7.14,0,0,0,7.15-.37c2.89-17.27,4-29,1.45-37.56C335.32,365.45,335.52,358.2,328.4,348.88Z" style="opacity:0.4"></path><path d="M328.4,348.88a4.54,4.54,0,0,1-.36-.6,34.53,34.53,0,0,1-24.73,2.81c-1.76,13.05-3.26,35.13-2.34,49.7.77,17,3.89,41,3.89,41,4.07,1.22,7.13.47,8.28-.41,1.36-16.83,4.34-28.36,2-39.49,1.54-7.77,2.54-17.54,2.54-17.54l1.17,17.18,4,30.22a7.14,7.14,0,0,0,7.15-.37c2.89-17.27,4-29,1.45-37.56C335.32,365.45,335.52,358.2,328.4,348.88Z" style="fill:#fff;opacity:0.1"></path><path d="M319.42,380.93l2.13-8.95a12.56,12.56,0,0,0,8.42-5.45,17.08,17.08,0,0,1-10.32,3.64l-1.94,14.16.41,6.05.17-2.21A45.43,45.43,0,0,1,319.42,380.93Z" style="opacity:0.2"></path><path d="M313,318.15l-6.22,1.23c-1.37,2.51-2.77,4.88-4.15,7.39-1,1.9-2.1,3.91-2,6.07a6.17,6.17,0,0,0,3.72,5.36l-3,21.29c11.53,7,30.22,2.08,31.94-4.16-1.67-4.3-3.44-5.86-4.53-10.94-.79-3.74,1.08-9,1.4-10.5a36.21,36.21,0,0,0,1.06-7,12.27,12.27,0,0,0-1.65-6.8l0-.06a7.62,7.62,0,0,0-7.64-3.28Z" style="fill:#033029"></path><path d="M320.89,313.18a6.28,6.28,0,0,0,3.76-3.93c.57-1.87.17-3.86.72-5.74.27-.92.76-1.7,1-2.66a10.31,10.31,0,0,0,.25-3.13,10.42,10.42,0,0,0-6-8A22,22,0,0,0,308.67,288a7.5,7.5,0,0,0-4.37,2,3.12,3.12,0,0,0,.2,4.35,3.38,3.38,0,0,0-1.41,2.39,2.9,2.9,0,0,0,2,2.78c1.16,11.13,6.24,13.37,8.88,14.33S318.46,315.52,320.89,313.18Z" style="fill:#263238"></path><polygon points="304.42 303.25 302.5 306.58 304.61 307.36 304.42 303.25" style="fill:#ffa8a7"></polygon><path d="M304.2,301.76c.31-2.93,1.17-5.69,3.08-7.09-.32,1.83,0,4.44,1.89,5.84a8.79,8.79,0,0,0,.3,4.64,4.63,4.63,0,0,1,1.42-2.51,2.65,2.65,0,0,1,2.73-.59,2.73,2.73,0,0,1,1.37,1.5,3.55,3.55,0,0,1-4.44,4.7,6.84,6.84,0,0,0,5.25,5.32,8.85,8.85,0,0,0,5.09-.39l.8,3.85c-3.22,3.43-8.71,1.12-8.71,1.12l-.72-3.88c-6.32.38-6.91.27-7.61-3.21A34.41,34.41,0,0,1,304.2,301.76Z" style="fill:#ffa8a7"></path><path d="M323.88,295.71l-.63-2.45a1,1,0,0,0-1.24-.38,1.38,1.38,0,0,0-.78,1.05,2.5,2.5,0,0,0,.18,1.35,2.19,2.19,0,0,0,.62,1,1.26,1.26,0,0,0,1.07.29C323.47,296.43,323.91,296.09,323.88,295.71Z" style="fill:#033029"></path><path d="M323.39,295.79a4.53,4.53,0,0,1,4.76,2.37,8.11,8.11,0,0,1,.57,5.56c-.59,2.8-2.05,5.33-3.31,7.9s-2.34,5.37-2.09,8.22c.32,3.75,3.33,6.7,7,7.67a4,4,0,0,1-1.44-3.05,6.15,6.15,0,0,0,4.2,2.62,5.9,5.9,0,0,0,4.66-1.37,5.59,5.59,0,0,1-4-1.56,4.8,4.8,0,0,0,2.93-.41c-3-1.71-4.07-5.7-3.69-9.18s1.82-6.74,2.47-10.18.34-7.4-2.21-9.79a9,9,0,0,0-7.64-1.92,15.34,15.34,0,0,0-2.58.69C321.71,293.68,322.47,296,323.39,295.79Z" style="fill:#263238"></path><polygon points="266.44 308.33 275.66 335.06 294.73 324.48 285.61 298.04 266.44 308.33" style="fill:#033029"></polygon><polygon points="266.44 308.33 275.66 335.06 294.73 324.48 285.61 298.04 266.44 308.33" style="opacity:0.30000000000000004"></polygon><polygon points="266.44 308.33 275.66 335.06 294.73 324.48 285.61 298.04 266.44 308.33" style="fill:#fff;opacity:0.2"></polygon><polygon points="291.9 323.39 284.31 301.38 269.28 309.44 276.96 331.68 291.9 323.39" style="fill:#fff"></polygon><polygon points="281.66 303.01 273.31 307.39 272.95 306.28 274.57 304.85 279.14 302.55 281.22 302.16 281.66 303.01" style="fill:#455a64"></polygon><polygon points="279.14 302.55 278.78 301.7 274.31 304.1 274.57 304.85 279.14 302.55" style="fill:#37474f"></polygon><polygon points="281.37 300.31 271.28 305.73 270.84 304.68 281.03 299.33 281.37 300.31" style="fill:#455a64"></polygon><path d="M278.64,300.59c-.88-2.78-6.16-.17-5.13,2.69Z" style="fill:#37474f"></path><path d="M302.5,321.84l-13.44,17.21-12.23-12a4.29,4.29,0,0,1-1.24-2.51c-.59-4.56-1.85-7.82-3.48-7.25-1,.36.29,4.81.29,4.81l-1.52-.87L269.1,316h-.81a2,2,0,0,0-1.92,1.37l-.76,2.2a6.47,6.47,0,0,0,2.26,7.32l2.69,2a4.23,4.23,0,0,1,1,1.09,134.49,134.49,0,0,0,14.35,18.34,3.65,3.65,0,0,0,4.63.47c5.2-3.43,15.79-13.36,21.23-20.28a5.74,5.74,0,0,0-1.56-8.46h0A5.73,5.73,0,0,0,302.5,321.84Z" style="fill:#ffa8a7"></path></g><g id="freepik--character-1--inject-177"><path d="M210.65,173.76c2.92-1.68,5.29-.33,5.3,3l.18,62.27a11.6,11.6,0,0,1-5.27,9.12l-74.7,43.13c-2.92,1.69-5.29.33-5.3-3L130.68,226a11.62,11.62,0,0,1,5.27-9.13Z" style="fill:#033029"></path><g style="opacity:0.8"><path d="M210.65,173.76c2.92-1.68,5.29-.33,5.3,3l.18,62.27a11.6,11.6,0,0,1-5.27,9.12l-74.7,43.13c-2.92,1.69-5.29.33-5.3-3L130.68,226a11.62,11.62,0,0,1,5.27-9.13Z" style="fill:#fff"></path></g><path d="M211.21,177.86a.34.34,0,0,1,.42,0c.18.17.13.58-.1.92L174.29,232l37.42,10.15c.23.07.28.42.11.79a1.15,1.15,0,0,1-.42.49.48.48,0,0,1-.32.07l-37.67-10.23-37.5,53.62a.88.88,0,0,1-.31.3.36.36,0,0,1-.43,0c-.17-.17-.12-.58.11-.91l37.23-53.25L135.1,222.9c-.24-.06-.28-.41-.11-.79a1.09,1.09,0,0,1,.42-.49.42.42,0,0,1,.32-.06l37.67,10.22,37.5-53.62A1,1,0,0,1,211.21,177.86Z" style="fill:#fff"></path><path d="M212.26,218.45l3.83,8.15-6.81,20.68-15.05,9.77,5.38,12.74,15.38-15a11.51,11.51,0,0,0,3.36-6.7l2.89-21.74L218,214l-1.9-1.82.06,7.79-1.92-2.68a1.13,1.13,0,0,0-1.55-.28h0A1.12,1.12,0,0,0,212.26,218.45Z" style="fill:#ab6060"></path><path d="M193.44,255l12.29-6.18c7.19,1.82,7.38,9.42,7.38,9.42L200.4,269.79Z" style="fill:#37474f"></path><path d="M180.46,395.42a4.35,4.35,0,0,1-3.94,2.65,19.29,19.29,0,0,1-5-.63c-3.7-.67-7.28,0-11-.1A15.07,15.07,0,0,1,157,397a6,6,0,0,1-3.09-1.82,4,4,0,0,1-.88-1.93,3.8,3.8,0,0,0,.88,3A6,6,0,0,0,157,398a16.16,16.16,0,0,0,3.61.39c3.69.08,7.27-.58,11,.09a19.74,19.74,0,0,0,5,.64,4.36,4.36,0,0,0,3.94-2.66,4.06,4.06,0,0,0,.13-1.7A2.63,2.63,0,0,1,180.46,395.42Z" style="fill:#263238"></path><path d="M180.37,392.35c-.23-1.12-.46-2.24-.68-3.37a5.08,5.08,0,0,0-.57-1.71,1.72,1.72,0,0,0-1.5-.86c-2-.27-4.88-1-6.57.16A15,15,0,0,1,162,389.2a32.43,32.43,0,0,0-5-.2,4.5,4.5,0,0,0-3.89,2.74,3.27,3.27,0,0,0-.08,1.46,4,4,0,0,0,.88,1.93A6,6,0,0,0,157,397a15.07,15.07,0,0,0,3.61.39c3.69.09,7.27-.57,11,.1a19.29,19.29,0,0,0,5,.63,4.35,4.35,0,0,0,3.94-2.65,2.63,2.63,0,0,0,.13-.62A7.81,7.81,0,0,0,180.37,392.35Z" style="fill:#033029"></path><path d="M170.56,383l-.15,4.39a1.73,1.73,0,0,0,1.61,1.79,27.11,27.11,0,0,0,4.42,0,2.49,2.49,0,0,0,2.26-2.35l.18-3.24Z" style="fill:#ffa8a7"></path><path d="M170.56,383l-.15,4.39a1.73,1.73,0,0,0,1.61,1.79,27.11,27.11,0,0,0,4.42,0,2.49,2.49,0,0,0,2.26-2.35l.18-3.24Z" style="opacity:0.4"></path><path d="M199.19,380.71a3.38,3.38,0,0,1-.58,1.81,3.34,3.34,0,0,1-2.07,1.17,5.23,5.23,0,0,1-5.14-2.12c-.55-.8-.87-1.74-1.39-2.55a11.49,11.49,0,0,0-2.88-2.81,11.8,11.8,0,0,1-2.9-2.78,4.06,4.06,0,0,1-.55-3.71,2.78,2.78,0,0,0-.28.47,4.25,4.25,0,0,0,.52,3.95,12.66,12.66,0,0,0,3,2.87,11.63,11.63,0,0,1,2.93,2.88c.54.85.86,1.82,1.42,2.64a5.31,5.31,0,0,0,5.24,2.18,3.31,3.31,0,0,0,2.11-1.2,4,4,0,0,0,.62-2.52A2.64,2.64,0,0,0,199.19,380.71Z" style="fill:#263238"></path><path d="M197.86,375.2c-1.33-2.33-4.08-4-6.2-5.69a8,8,0,0,0-4.11-1.87,3.88,3.88,0,0,0-3.83,2,.56.56,0,0,0,0,.12,4.06,4.06,0,0,0,.55,3.71,11.8,11.8,0,0,0,2.9,2.78A11.49,11.49,0,0,1,190,379c.52.81.84,1.75,1.39,2.55a5.23,5.23,0,0,0,5.14,2.12,3.34,3.34,0,0,0,2.07-1.17,3.38,3.38,0,0,0,.58-1.81c0-.21,0-.42,0-.63A10.31,10.31,0,0,0,197.86,375.2Z" style="fill:#033029"></path><path d="M192.08,373.18v4a6.68,6.68,0,0,0,6.2-.27l.38-3.59Z" style="fill:#ffa8a7"></path><path d="M192.08,373.18v4a6.68,6.68,0,0,0,6.2-.27l.38-3.59Z" style="opacity:0.4"></path><path d="M199.7,300.86c1.2,3.59.83,22.39.13,38.73,1.14,8,1.11,25.19-.39,37.64a12.68,12.68,0,0,1-9.94.2L186,339.62l-.82-19.43s-1.47,17.24-3.17,28.3c.62,8.12-.72,23.64-1.92,40.2,0,0-6.4,3.73-12.75-.36-2.22-36.6,1.39-73.67,2.13-85.68Z" style="fill:#37474f"></path><path d="M185.66,332,185,316.18c4.1,0,7.9-3.07,10.79-6a18.32,18.32,0,0,1-8.16,7.14Z" style="opacity:0.30000000000000004"></path><path d="M168.82,272.59v31c18.28,7.66,30.12.74,31.73-2.86-.85-12.63,2.14-27.41,1.91-33.68s-1-13.36-10.73-11.94l-10.36,1-5.25,1.28Z" style="fill:#455a64"></path><path d="M159.12,270.9l-3.49,3.63-19.44-7.67a40.93,40.93,0,0,0-.36-5.32c-.12-.55-.43-1-1-1h0c-.38,0-.93.62-1,1.62,0,.19,0,1.3-.07,1.63a.76.76,0,0,1-1.34.43,8.15,8.15,0,0,1-1.06-1.4l-.31-.86a12.59,12.59,0,0,1-.3-2.75,4.79,4.79,0,0,0-3,4.12,12.17,12.17,0,0,0-.16,4.31c.6,2,2.39,2.92,5.47,3.92,6.14,4.29,14.72,9.3,19.33,11.93a6,6,0,0,0,6.34-.22l7.38-4.93Z" style="fill:#ab6060"></path><path d="M153.5,279a10.49,10.49,0,0,1,2.13-4.46l-1.66-.65C152.87,274.81,152.55,277.28,153.5,279Z" style="fill:#873e3e"></path><path d="M158.26,270.93l9.82-9.66a13.79,13.79,0,0,1,8.06-3.87l.18,0c4.15,9.1-1.34,13.55-1.34,13.55l-9.12,8.38A16.47,16.47,0,0,1,158.26,270.93Z" style="fill:#37474f"></path><path d="M191.21,249.46a18.89,18.89,0,0,0,6.17-11.58,6.35,6.35,0,0,0-.4-3.64c-.55-1.11-2-2.27-3.17-2a5.19,5.19,0,0,0-2.08-3.92,7.15,7.15,0,0,0-3.68-.78c-1.27,0-2.53.21-3.8.21-2,0-6.55-.56-8.35-1.45a5.64,5.64,0,0,0,1,3.25c-1.3-.24-2.46-1.38-3.5-2.21a6.72,6.72,0,0,0,2.08,4.6c-1.76-.17-2.09,2.87.92,2.87C177.73,248,186.85,253.16,191.21,249.46Z" style="fill:#263238"></path><path d="M175.22,240.15,173.59,243l1.62.59A32.9,32.9,0,0,1,175.22,240.15Z" style="fill:#873e3e"></path><path d="M176.41,234.84a23.51,23.51,0,0,0-1.19,5.31,32.9,32.9,0,0,0,0,3.44,32.36,32.36,0,0,0,.56,4.81,5.17,5.17,0,0,0,.94,2.41,3.83,3.83,0,0,0,2.62,1.2,11.24,11.24,0,0,0,2.94-.28v4.66c3.53.83,6.46,1.2,9.24-.93l-.3-6a8.61,8.61,0,0,1-5-.78c-2.44-1.32-3.12-3.43-2.78-4.6a1.85,1.85,0,0,0,1.91.67,2.6,2.6,0,0,0,1.59-1.26,5.46,5.46,0,0,0,.59-2,3.61,3.61,0,0,0-.36-2.45,2.59,2.59,0,0,0-2.77-.94,3.94,3.94,0,0,0-2.33,1.95,6,6,0,0,0-.41.89.55.55,0,0,1-1.07-.13,7.27,7.27,0,0,1,.7-3.9,3.14,3.14,0,0,1-1.31.3,1.68,1.68,0,0,1-1.25-.58,1.13,1.13,0,0,1-.05-1.33A2.79,2.79,0,0,1,176.41,234.84Z" style="fill:#ab6060"></path><path d="M209.28,247.28a4,4,0,0,1,3.83,2.56c-.16-4.45-2.82-3.73-3.56-3.38Z" style="fill:#873e3e"></path></g></svg>